# xmcd
#
# Track frame offsets:
#	150
#	20803
#	42616
#	65641
#	88196
#	109601
#	131835
#	155760
#	181523
#	202688
#
# Disc length: 2979 seconds
#
# Revision: 0
# Processed by: cddbd v1.5PL3 Copyright (c) Steve Scherf et al.
# Submitted via: dBpowerAMP V4.0
#
DISCID=890ba10a
DTITLE=The Love Doctor - Lies
DYEAR=2004
DGENRE=blues
TTITLE0=short skirts, tight jeans
TTITLE1=i'm in love
TTITLE2=the good, the bad, and the ugly
TTITLE3=don't give up on love
TTITLE4=part time love
TTITLE5=you said it, no i didn't (lies)
TTITLE6=first class love
TTITLE7=wife, woman, lover, friend
TTITLE8=caught up
TTITLE9=big blue diamond
EXTD=
EXTT0=
EXTT1=
EXTT2=
EXTT3=
EXTT4=
EXTT5=
EXTT6=
EXTT7=
EXTT8=
EXTT9=
PLAYORDER=
